<svg width="192" height="24" viewBox="0 0 192 24" fill="none" xmlns="http://www.w3.org/2000/svg">
<path d="M13.664 7.376C12.88 6.94667 12.0773 6.592 11.256 6.312C10.4533 6.032 9.69733 5.892 8.988 5.892C8.11067 5.892 7.42 6.06933 6.916 6.424C6.412 6.77867 6.16 7.31067 6.16 8.02C6.16 8.50533 6.34667 8.944 6.72 9.336C7.112 9.70933 7.60667 10.0453 8.204 10.344C8.82 10.6427 9.45467 10.9133 10.108 11.156C10.7053 11.38 11.2933 11.6507 11.872 11.968C12.4693 12.2667 13.0013 12.6493 13.468 13.116C13.9347 13.564 14.308 14.1333 14.588 14.824C14.868 15.496 15.008 16.3267 15.008 17.316C15.008 18.3613 14.7373 19.332 14.196 20.228C13.6547 21.124 12.8613 21.852 11.816 22.412C10.7707 22.9533 9.48267 23.224 7.952 23.224C7.168 23.224 6.36533 23.1493 5.544 23C4.74133 22.832 3.948 22.5893 3.164 22.272C2.38 21.936 1.624 21.516 0.896 21.012L2.688 17.848C3.17333 18.2027 3.696 18.52 4.256 18.8C4.83467 19.0613 5.41333 19.2667 5.992 19.416C6.57067 19.5653 7.10267 19.64 7.588 19.64C8.07333 19.64 8.55867 19.5747 9.044 19.444C9.548 19.2947 9.95867 19.052 10.276 18.716C10.612 18.38 10.78 17.9133 10.78 17.316C10.78 16.9053 10.64 16.532 10.36 16.196C10.0987 15.86 9.73467 15.552 9.268 15.272C8.82 14.992 8.32533 14.7493 7.784 14.544C7.14933 14.3013 6.496 14.0213 5.824 13.704C5.152 13.3867 4.51733 13.004 3.92 12.556C3.34133 12.0893 2.86533 11.52 2.492 10.848C2.13733 10.1573 1.96 9.31733 1.96 8.328C1.96 7.13333 2.22133 6.09733 2.744 5.22C3.28533 4.34267 4.04133 3.652 5.012 3.148C5.98267 2.62533 7.10267 2.336 8.372 2.28C10.0333 2.28 11.3773 2.476 12.404 2.868C13.4493 3.26 14.3827 3.72667 15.204 4.268L13.664 7.376ZM23.4922 23.336C22.3536 23.336 21.3176 23.112 20.3842 22.664C19.4696 22.1973 18.7416 21.488 18.2002 20.536C17.6589 19.584 17.3882 18.3707 17.3882 16.896C17.3882 15.5147 17.6682 14.32 18.2282 13.312C18.7882 12.304 19.5256 11.5293 20.4402 10.988C21.3549 10.428 22.3256 10.148 23.3522 10.148C24.5656 10.148 25.4802 10.3533 26.0962 10.764C26.7309 11.156 27.2536 11.5947 27.6642 12.08L27.4962 12.556L27.8602 10.764H31.5002V23H27.5802V20.34L27.8882 21.18C27.8509 21.18 27.7389 21.292 27.5522 21.516C27.3656 21.7213 27.0856 21.9733 26.7122 22.272C26.3576 22.552 25.9096 22.7947 25.3682 23C24.8456 23.224 24.2202 23.336 23.4922 23.336ZM24.6122 20.144C25.0789 20.144 25.4989 20.0787 25.8722 19.948C26.2456 19.7987 26.5722 19.5933 26.8522 19.332C27.1322 19.052 27.3749 18.7067 27.5802 18.296V15.3C27.4309 14.8893 27.2069 14.544 26.9082 14.264C26.6096 13.9653 26.2549 13.7413 25.8442 13.592C25.4336 13.424 24.9762 13.34 24.4722 13.34C23.9122 13.34 23.3896 13.4893 22.9042 13.788C22.4376 14.068 22.0642 14.46 21.7842 14.964C21.5042 15.468 21.3642 16.0467 21.3642 16.7C21.3642 17.3533 21.5136 17.9413 21.8122 18.464C22.1109 18.9867 22.5029 19.3973 22.9882 19.696C23.4922 19.9947 24.0336 20.144 24.6122 20.144ZM35.5394 23V0.907999H39.3754V13.228L39.3474 12.752C39.7768 11.9867 40.3834 11.3707 41.1674 10.904C41.9514 10.4187 42.9128 10.176 44.0514 10.176C45.2088 10.176 46.1701 10.5213 46.9354 11.212C47.7194 11.884 48.1208 12.7613 48.1394 13.844V23H44.2194V15.3C44.2008 14.7587 44.0514 14.3293 43.7714 14.012C43.5101 13.676 43.0621 13.508 42.4274 13.508C41.8301 13.508 41.3074 13.704 40.8594 14.096C40.4114 14.488 40.0661 15.02 39.8234 15.692C39.5808 16.364 39.4594 17.1387 39.4594 18.016V23H35.5394ZM52.1644 10.764H56.0844V23H52.1644V10.764ZM52.0804 6.424C52.0804 5.84533 52.3044 5.36933 52.7524 4.996C53.2191 4.62267 53.7138 4.436 54.2364 4.436C54.7591 4.436 55.2351 4.62267 55.6644 4.996C56.1124 5.36933 56.3364 5.84533 56.3364 6.424C56.3364 7.00267 56.1124 7.47867 55.6644 7.852C55.2351 8.20667 54.7591 8.384 54.2364 8.384C53.7138 8.384 53.2191 8.20667 52.7524 7.852C52.3044 7.47867 52.0804 7.00267 52.0804 6.424ZM61.2695 5.388H65.1895V10.708H68.1575V13.76H65.1895V23H61.2695V13.76H59.3655V10.708H61.2695V5.388ZM71.141 23V0.907999H74.977V13.228L74.949 12.752C75.3783 11.9867 75.985 11.3707 76.769 10.904C77.553 10.4187 78.5143 10.176 79.653 10.176C80.8103 10.176 81.7717 10.5213 82.537 11.212C83.321 11.884 83.7223 12.7613 83.741 13.844V23H79.821V15.3C79.8023 14.7587 79.653 14.3293 79.373 14.012C79.1117 13.676 78.6637 13.508 78.029 13.508C77.4317 13.508 76.909 13.704 76.461 14.096C76.013 14.488 75.6677 15.02 75.425 15.692C75.1823 16.364 75.061 17.1387 75.061 18.016V23H71.141ZM97.5155 23V1.552H97.5435L108.995 17.792L107.259 17.4L118.683 1.552H118.739V23H114.679V10.708L114.931 12.808L107.959 22.72H107.903L100.735 12.808L101.435 10.876V23H97.5155ZM128.574 23.336C127.436 23.336 126.4 23.112 125.466 22.664C124.552 22.1973 123.824 21.488 123.282 20.536C122.741 19.584 122.47 18.3707 122.47 16.896C122.47 15.5147 122.75 14.32 123.31 13.312C123.87 12.304 124.608 11.5293 125.522 10.988C126.437 10.428 127.408 10.148 128.434 10.148C129.648 10.148 130.562 10.3533 131.178 10.764C131.813 11.156 132.336 11.5947 132.746 12.08L132.578 12.556L132.942 10.764H136.582V23H132.662V20.34L132.97 21.18C132.933 21.18 132.821 21.292 132.634 21.516C132.448 21.7213 132.168 21.9733 131.794 22.272C131.44 22.552 130.992 22.7947 130.45 23C129.928 23.224 129.302 23.336 128.574 23.336ZM129.694 20.144C130.161 20.144 130.581 20.0787 130.954 19.948C131.328 19.7987 131.654 19.5933 131.934 19.332C132.214 19.052 132.457 18.7067 132.662 18.296V15.3C132.513 14.8893 132.289 14.544 131.99 14.264C131.692 13.9653 131.337 13.7413 130.926 13.592C130.516 13.424 130.058 13.34 129.554 13.34C128.994 13.34 128.472 13.4893 127.986 13.788C127.52 14.068 127.146 14.46 126.866 14.964C126.586 15.468 126.446 16.0467 126.446 16.7C126.446 17.3533 126.596 17.9413 126.894 18.464C127.193 18.9867 127.585 19.3973 128.07 19.696C128.574 19.9947 129.116 20.144 129.694 20.144ZM144.177 10.764L144.485 12.948L144.429 12.752C144.859 11.9867 145.465 11.3707 146.249 10.904C147.033 10.4187 147.995 10.176 149.133 10.176C150.291 10.176 151.252 10.5213 152.017 11.212C152.801 11.884 153.203 12.7613 153.221 13.844V23H149.301V15.3C149.283 14.7587 149.133 14.3293 148.853 14.012C148.592 13.676 148.144 13.508 147.509 13.508C146.912 13.508 146.389 13.704 145.941 14.096C145.493 14.488 145.148 15.02 144.905 15.692C144.663 16.364 144.541 17.1387 144.541 18.016V23H140.621V10.764H144.177ZM167.634 21.908C167.093 22.3373 166.412 22.6827 165.59 22.944C164.788 23.2053 163.994 23.336 163.21 23.336C161.81 23.336 160.588 23.084 159.542 22.58C158.516 22.0573 157.713 21.32 157.134 20.368C156.574 19.3973 156.294 18.2307 156.294 16.868C156.294 15.5053 156.602 14.348 157.218 13.396C157.834 12.4253 158.637 11.688 159.626 11.184C160.634 10.68 161.689 10.428 162.79 10.428C163.892 10.428 164.844 10.5773 165.646 10.876C166.468 11.1747 167.168 11.5667 167.746 12.052L165.842 14.572C165.581 14.3667 165.217 14.1613 164.75 13.956C164.302 13.732 163.77 13.62 163.154 13.62C162.613 13.62 162.118 13.76 161.67 14.04C161.222 14.32 160.868 14.7027 160.606 15.188C160.345 15.6733 160.214 16.2333 160.214 16.868C160.214 17.4653 160.354 18.016 160.634 18.52C160.914 19.024 161.297 19.4253 161.782 19.724C162.286 20.004 162.874 20.144 163.546 20.144C163.976 20.144 164.368 20.088 164.722 19.976C165.096 19.8453 165.413 19.668 165.674 19.444L167.634 21.908ZM170.645 23V0.907999H174.481V13.228L174.453 12.752C174.882 11.9867 175.489 11.3707 176.273 10.904C177.057 10.4187 178.018 10.176 179.157 10.176C180.314 10.176 181.276 10.5213 182.041 11.212C182.825 11.884 183.226 12.7613 183.245 13.844V23H179.325V15.3C179.306 14.7587 179.157 14.3293 178.877 14.012C178.616 13.676 178.168 13.508 177.533 13.508C176.936 13.508 176.413 13.704 175.965 14.096C175.517 14.488 175.172 15.02 174.929 15.692C174.686 16.364 174.565 17.1387 174.565 18.016V23H170.645ZM187.27 10.764H191.19V23H187.27V10.764ZM187.186 6.424C187.186 5.84533 187.41 5.36933 187.858 4.996C188.325 4.62267 188.819 4.436 189.342 4.436C189.865 4.436 190.341 4.62267 190.77 4.996C191.218 5.36933 191.442 5.84533 191.442 6.424C191.442 7.00267 191.218 7.47867 190.77 7.852C190.341 8.20667 189.865 8.384 189.342 8.384C188.819 8.384 188.325 8.20667 187.858 7.852C187.41 7.47867 187.186 7.00267 187.186 6.424Z" fill="white"/>
</svg>
