<svg width="50" height="40" viewBox="0 0 50 40" fill="none" xmlns="http://www.w3.org/2000/svg">
<rect y="10" width="20" height="31" rx="10" transform="rotate(-30 0 10)" fill="#285CDB"/>
<g filter="url(#filter0_d_2607_6396)">
<rect x="31.5" y="0.133789" width="20" height="31" rx="10" transform="rotate(30 31.5 0.133789)" fill="black" fill-opacity="0.01"/>
</g>
<rect x="32.5" width="20" height="31" rx="10" transform="rotate(30 32.5 0)" fill="url(#paint0_linear_2607_6396)"/>
<path d="M19.784 17.956C19.28 17.68 18.764 17.452 18.236 17.272C17.72 17.092 17.234 17.002 16.778 17.002C16.214 17.002 15.77 17.116 15.446 17.344C15.122 17.572 14.96 17.914 14.96 18.37C14.96 18.682 15.08 18.964 15.32 19.216C15.572 19.456 15.89 19.672 16.274 19.864C16.67 20.056 17.078 20.23 17.498 20.386C17.882 20.53 18.26 20.704 18.632 20.908C19.016 21.1 19.358 21.346 19.658 21.646C19.958 21.934 20.198 22.3 20.378 22.744C20.558 23.176 20.648 23.71 20.648 24.346C20.648 25.018 20.474 25.642 20.126 26.218C19.778 26.794 19.268 27.262 18.596 27.622C17.924 27.97 17.096 28.144 16.112 28.144C15.608 28.144 15.092 28.096 14.564 28C14.048 27.892 13.538 27.736 13.034 27.532C12.53 27.316 12.044 27.046 11.576 26.722L12.728 24.688C13.04 24.916 13.376 25.12 13.736 25.3C14.108 25.468 14.48 25.6 14.852 25.696C15.224 25.792 15.566 25.84 15.878 25.84C16.19 25.84 16.502 25.798 16.814 25.714C17.138 25.618 17.402 25.462 17.606 25.246C17.822 25.03 17.93 24.73 17.93 24.346C17.93 24.082 17.84 23.842 17.66 23.626C17.492 23.41 17.258 23.212 16.958 23.032C16.67 22.852 16.352 22.696 16.004 22.564C15.596 22.408 15.176 22.228 14.744 22.024C14.312 21.82 13.904 21.574 13.52 21.286C13.148 20.986 12.842 20.62 12.602 20.188C12.374 19.744 12.26 19.204 12.26 18.568C12.26 17.8 12.428 17.134 12.764 16.57C13.112 16.006 13.598 15.562 14.222 15.238C14.846 14.902 15.566 14.716 16.382 14.68C17.45 14.68 18.314 14.806 18.974 15.058C19.646 15.31 20.246 15.61 20.774 15.958L19.784 17.956ZM23.2041 28V14.212H23.2221L30.5841 24.652L29.4681 24.4L36.8121 14.212H36.8481V28H34.2381V20.098L34.4001 21.448L29.9181 27.82H29.8821L25.2741 21.448L25.7241 20.206V28H23.2041Z" fill="white"/>
<defs>
<filter id="filter0_d_2607_6396" x="15.6582" y="1.79248" width="33.5039" height="37.5293" filterUnits="userSpaceOnUse" color-interpolation-filters="sRGB">
<feFlood flood-opacity="0" result="BackgroundImageFix"/>
<feColorMatrix in="SourceAlpha" type="matrix" values="0 0 0 0 0 0 0 0 0 0 0 0 0 0 0 0 0 0 127 0" result="hardAlpha"/>
<feOffset dy="2"/>
<feGaussianBlur stdDeviation="2"/>
<feColorMatrix type="matrix" values="0 0 0 0 0 0 0 0 0 0 0 0 0 0 0 0 0 0 0.5 0"/>
<feBlend mode="normal" in2="BackgroundImageFix" result="effect1_dropShadow_2607_6396"/>
<feBlend mode="normal" in="SourceGraphic" in2="effect1_dropShadow_2607_6396" result="shape"/>
</filter>
<linearGradient id="paint0_linear_2607_6396" x1="18.8519" y1="15.8327" x2="41.3456" y2="32.553" gradientUnits="userSpaceOnUse">
<stop stop-color="#3B75FF"/>
<stop offset="1" stop-color="#285CDB"/>
</linearGradient>
</defs>
</svg>
